<svg height="702" width="720" xmlns="http://www.w3.org/2000/svg">
<rect height="702" fill="#555" width="720"></rect>
<text fill="#7f7" font-family="Courier New" font-size="12" xml:space="preserve">
<tspan x="10" y="26">18 megabytes installed</tspan>
<tspan x="10" y="42"></tspan>
<tspan x="10" y="58">node_modules</tspan>
<tspan x="10" y="74">└─┬ vorpal@1.12.0 </tspan>
<tspan x="10" y="90">  ├─┬ babel-polyfill@6.23.0 </tspan>
<tspan x="10" y="106">  │ ├── babel-runtime@6.23.0 </tspan>
<tspan x="10" y="122">  │ ├── core-js@2.4.1 </tspan>
<tspan x="10" y="138">  │ └── regenerator-runtime@0.10.3 </tspan>
<tspan x="10" y="154">  ├─┬ chalk@1.1.3 </tspan>
<tspan x="10" y="170">  │ ├── ansi-styles@2.2.1 </tspan>
<tspan x="10" y="186">  │ ├── escape-string-regexp@1.0.5 </tspan>
<tspan x="10" y="202">  │ ├── has-ansi@2.0.0 </tspan>
<tspan x="10" y="218">  │ └── supports-color@2.0.0 </tspan>
<tspan x="10" y="234">  ├── in-publish@2.0.0 </tspan>
<tspan x="10" y="250">  ├─┬ inquirer@0.11.0 </tspan>
<tspan x="10" y="266">  │ ├── ansi-escapes@1.4.0 </tspan>
<tspan x="10" y="282">  │ ├── ansi-regex@2.1.1 </tspan>
<tspan x="10" y="298">  │ ├─┬ cli-cursor@1.0.2 </tspan>
<tspan x="10" y="314">  │ │ └─┬ restore-cursor@1.0.1 </tspan>
<tspan x="10" y="330">  │ │   ├── exit-hook@1.1.1 </tspan>
<tspan x="10" y="346">  │ │   └── onetime@1.1.0 </tspan>
<tspan x="10" y="362">  │ ├── cli-width@1.1.1 </tspan>
<tspan x="10" y="378">  │ ├─┬ figures@1.7.0 </tspan>
<tspan x="10" y="394">  │ │ └── object-assign@4.1.1 </tspan>
<tspan x="10" y="410">  │ ├── lodash@3.10.1 </tspan>
<tspan x="10" y="426">  │ ├─┬ readline2@1.0.1 </tspan>
<tspan x="10" y="442">  │ │ ├── code-point-at@1.1.0 </tspan>
<tspan x="10" y="458">  │ │ ├─┬ is-fullwidth-code-point@1.0.0 </tspan>
<tspan x="10" y="474">  │ │ │ └── number-is-nan@1.0.1 </tspan>
<tspan x="10" y="490">  │ │ └── mute-stream@0.0.5 </tspan>
<tspan x="10" y="506">  │ ├─┬ run-async@0.1.0 </tspan>
<tspan x="10" y="522">  │ │ └─┬ once@1.4.0 </tspan>
<tspan x="10" y="538">  │ │   └── wrappy@1.0.2 </tspan>
<tspan x="10" y="554">  │ ├── rx-lite@3.1.2 </tspan>
<tspan x="10" y="570">  │ └── through@2.3.8 </tspan>
<tspan x="10" y="586">  ├── lodash@4.17.4 </tspan>
<tspan x="10" y="602">  ├── log-update@1.0.2 </tspan>
<tspan x="10" y="618">  ├── minimist@1.2.0 </tspan>
<tspan x="10" y="634">  ├── node-localstorage@0.6.0 </tspan>
<tspan x="10" y="650">  ├── strip-ansi@3.0.1 </tspan>
<tspan x="10" y="666">  └─┬ wrap-ansi@2.1.0 </tspan>
<tspan x="10" y="682">    └── string-width@1.0.2</tspan>
</text>
</svg>
